<?xml version="1.0" standalone="no"?><!DOCTYPE svg PUBLIC "-//W3C//DTD SVG 1.1//EN" "http://www.w3.org/Graphics/SVG/1.1/DTD/svg11.dtd"><svg t="1546695045328" class="icon" style="" viewBox="0 0 1024 1024" version="1.1" xmlns="http://www.w3.org/2000/svg" p-id="10935" xmlns:xlink="http://www.w3.org/1999/xlink" width="200" height="200"><defs><style type="text/css">* { user-select: text !important; }
</style></defs><path d="M472.253731 221.619571a35.978033 35.978033 0 1 1 35.914129 35.978033 35.978033 35.978033 0 0 1-35.914129-35.978033z m156.948578 484.39341H544.145893v-349.555667a35.914129 35.914129 0 0 0-35.978033-35.978033h-95.856215a35.978033 35.978033 0 0 0 0 71.892162h59.942086v313.641538H387.197316a35.978033 35.978033 0 0 0 0 71.892161h242.004993a35.978033 35.978033 0 1 0 0-71.892161z m192.607089 117.328008A439.340989 439.340989 0 1 1 340.163866 107.870195a439.277084 439.277084 0 0 1 481.645532 715.470794zM511.235259 1.469795a511.23315 511.23315 0 1 0 511.23315 511.233151 511.23315 511.23315 0 0 0-511.23315-511.233151z" fill="#1296db" p-id="10936"></path></svg>