<?xml version="1.0" standalone="no"?><!DOCTYPE svg PUBLIC "-//W3C//DTD SVG 1.1//EN" "http://www.w3.org/Graphics/SVG/1.1/DTD/svg11.dtd"><svg t="1547390358962" class="icon" style="" viewBox="0 0 1024 1024" version="1.1" xmlns="http://www.w3.org/2000/svg" p-id="2144" xmlns:xlink="http://www.w3.org/1999/xlink" width="200" height="200"><defs><style type="text/css">* { user-select: text !important; }
</style></defs><path d="M824.888889 1024h-625.777778C119.466667 1024 56.888889 961.422222 56.888889 881.777778v-739.555556C56.888889 62.577778 119.466667 0 199.111111 0h625.777778C904.533333 0 967.111111 62.577778 967.111111 142.222222v739.555556c0 79.644444-62.577778 142.222222-142.222222 142.222222zM199.111111 56.888889C153.6 56.888889 113.777778 96.711111 113.777778 142.222222v739.555556c0 45.511111 39.822222 85.333333 85.333333 85.333333h625.777778c45.511111 0 85.333333-39.822222 85.333333-85.333333v-739.555556c0-45.511111-39.822222-85.333333-85.333333-85.333333h-625.777778z" p-id="2145" fill="#2c2c2c"></path><path d="M312.888889 284.444444h398.222222c17.066667 0 28.444444 11.377778 28.444445 28.444445s-11.377778 28.444444-28.444445 28.444444h-398.222222c-17.066667 0-28.444444-11.377778-28.444445-28.444444s11.377778-28.444444 28.444445-28.444445zM312.888889 455.111111h398.222222c17.066667 0 28.444444 11.377778 28.444445 28.444445s-11.377778 28.444444-28.444445 28.444444h-398.222222c-17.066667 0-28.444444-11.377778-28.444445-28.444444s11.377778-28.444444 28.444445-28.444445zM312.888889 625.777778h398.222222c17.066667 0 28.444444 11.377778 28.444445 28.444444s-11.377778 28.444444-28.444445 28.444445h-398.222222c-17.066667 0-28.444444-11.377778-28.444445-28.444445s11.377778-28.444444 28.444445-28.444444z" p-id="2146" fill="#2c2c2c"></path></svg>