<?xml version="1.0" standalone="no"?><!DOCTYPE svg PUBLIC "-//W3C//DTD SVG 1.1//EN" "http://www.w3.org/Graphics/SVG/1.1/DTD/svg11.dtd"><svg t="1546695019658" class="icon" style="" viewBox="0 0 1024 1024" version="1.1" xmlns="http://www.w3.org/2000/svg" p-id="10182" xmlns:xlink="http://www.w3.org/1999/xlink" width="200" height="200"><defs><style type="text/css">* { user-select: text !important; }
</style></defs><path d="M325.12 232.96V184.32A115.2 115.2 0 0 1 440.32 69.12h163.84a115.2 115.2 0 0 1 115.2 115.2v48.64h171.52a33.28 33.28 0 1 1 0 66.56h-48.64V839.68a115.2 115.2 0 0 1-115.2 115.2h-409.6a115.2 115.2 0 0 1-115.2-115.2V299.52H153.6a33.28 33.28 0 1 1 0-66.56h171.52z m66.56 0h261.12V184.32a48.64 48.64 0 0 0-48.64-48.64H440.32a48.64 48.64 0 0 0-48.64 48.64v48.64z m384 66.56h-506.88V839.68c0 26.88 21.76 48.64 48.64 48.64h409.6a48.64 48.64 0 0 0 48.64-48.64V299.52zM407.04 471.04a33.28 33.28 0 1 1 66.56 0V716.8a33.28 33.28 0 1 1-66.56 0V471.04z m163.84 0a33.28 33.28 0 1 1 66.56 0V716.8a33.28 33.28 0 1 1-66.56 0V471.04z" p-id="10183" fill="#1296db"></path></svg>